<svg width="122" height="22" viewBox="0 0 122 22" fill="none" xmlns="http://www.w3.org/2000/svg">
<path d="M9.91211 7.00037V10.3342V11.6667V15.0004H12.7442V11.6667V10.3342V7.00037H9.91211Z" fill="#FAB908"/>
<path d="M1.41603 11.6249C2.19808 11.6249 2.83205 11.0093 2.83205 10.2499C2.83205 9.49048 2.19808 8.87488 1.41603 8.87488C0.633978 8.87488 0 9.49048 0 10.2499C0 11.0093 0.633978 11.6249 1.41603 11.6249Z" fill="#0066D9"/>
<path d="M1.41603 13.1253C2.19808 13.1253 2.83205 12.5096 2.83205 11.7502C2.83205 10.9909 2.19808 10.3752 1.41603 10.3752C0.633978 10.3752 0 10.9909 0 11.7502C0 12.5096 0.633978 13.1253 1.41603 13.1253Z" fill="#0066D9"/>
<path d="M2.83205 10.2505H0V11.7505H2.83205V10.2505Z" fill="#0066D9"/>
<path d="M21.2402 13.1253C22.0223 13.1253 22.6562 12.5096 22.6562 11.7502C22.6562 10.9909 22.0223 10.3752 21.2402 10.3752C20.4582 10.3752 19.8242 10.9909 19.8242 11.7502C19.8242 12.5096 20.4582 13.1253 21.2402 13.1253Z" fill="#4285F4"/>
<path d="M21.2402 11.6249C22.0223 11.6249 22.6562 11.0093 22.6562 10.2499C22.6562 9.49048 22.0223 8.87488 21.2402 8.87488C20.4582 8.87488 19.8242 9.49048 19.8242 10.2499C19.8242 11.0093 20.4582 11.6249 21.2402 11.6249Z" fill="#4285F4"/>
<path d="M19.8242 11.7505H22.6562V10.2505H19.8242V11.7505Z" fill="#4285F4"/>
<path d="M6.30762 16.1253C7.08965 16.1253 7.72363 15.5096 7.72363 14.7502C7.72363 13.9909 7.08965 13.3752 6.30762 13.3752C5.52557 13.3752 4.8916 13.9909 4.8916 14.7502C4.8916 15.5096 5.52557 16.1253 6.30762 16.1253Z" fill="#EA4335"/>
<path d="M6.30762 17.6251C7.08965 17.6251 7.72363 17.0095 7.72363 16.2501C7.72363 15.4907 7.08965 14.875 6.30762 14.875C5.52557 14.875 4.8916 15.4907 4.8916 16.2501C4.8916 17.0095 5.52557 17.6251 6.30762 17.6251Z" fill="#EA4335"/>
<path d="M7.72363 14.7502H4.8916V16.2502H7.72363V14.7502Z" fill="#EA4335"/>
<path d="M6.30762 7.12499C7.08965 7.12499 7.72363 6.50938 7.72363 5.75001C7.72363 4.99061 7.08965 4.375 6.30762 4.375C5.52557 4.375 4.8916 4.99061 4.8916 5.75001C4.8916 6.50938 5.52557 7.12499 6.30762 7.12499Z" fill="#EA4335"/>
<path d="M6.30762 11.9996C7.08965 11.9996 7.72363 11.384 7.72363 10.6246C7.72363 9.86524 7.08965 9.24963 6.30762 9.24963C5.52557 9.24963 4.8916 9.86524 4.8916 10.6246C4.8916 11.384 5.52557 11.9996 6.30762 11.9996Z" fill="#EA4335"/>
<path d="M7.72363 5.75H4.8916V10.6563H7.72363V5.75Z" fill="#EA4335"/>
<path d="M16.3486 8.62539C17.1307 8.62539 17.7646 8.00978 17.7646 7.25038C17.7646 6.49098 17.1307 5.87537 16.3486 5.87537C15.5666 5.87537 14.9326 6.49098 14.9326 7.25038C14.9326 8.00978 15.5666 8.62539 16.3486 8.62539Z" fill="#34A853"/>
<path d="M16.3486 7.12499C17.1307 7.12499 17.7646 6.50938 17.7646 5.75001C17.7646 4.99061 17.1307 4.375 16.3486 4.375C15.5666 4.375 14.9326 4.99061 14.9326 5.75001C14.9326 6.50938 15.5666 7.12499 16.3486 7.12499Z" fill="#34A853"/>
<path d="M14.9326 7.25H17.7647V5.75H14.9326V7.25Z" fill="#34A853"/>
<path d="M11.3281 4.25038C12.1102 4.25038 12.7442 3.63477 12.7442 2.87537C12.7442 2.11598 12.1102 1.50037 11.3281 1.50037C10.5461 1.50037 9.91211 2.11598 9.91211 2.87537C9.91211 3.63477 10.5461 4.25038 11.3281 4.25038Z" fill="#FAB908"/>
<path d="M11.3281 2.75001C12.1102 2.75001 12.7442 2.1344 12.7442 1.37501C12.7442 0.615613 12.1102 0 11.3281 0C10.5461 0 9.91211 0.615613 9.91211 1.37501C9.91211 2.1344 10.5461 2.75001 11.3281 2.75001Z" fill="#FAB908"/>
<path d="M9.91211 2.87501H12.7442V1.375H9.91211V2.87501Z" fill="#FAB908"/>
<path d="M11.3281 22C12.1102 22 12.7442 21.3844 12.7442 20.625C12.7442 19.8656 12.1102 19.25 11.3281 19.25C10.5461 19.25 9.91211 19.8656 9.91211 20.625C9.91211 21.3844 10.5461 22 11.3281 22Z" fill="#FAB908"/>
<path d="M11.3281 20.5004C12.1102 20.5004 12.7442 19.8848 12.7442 19.1254C12.7442 18.366 12.1102 17.7504 11.3281 17.7504C10.5461 17.7504 9.91211 18.366 9.91211 19.1254C9.91211 19.8848 10.5461 20.5004 11.3281 20.5004Z" fill="#FAB908"/>
<path d="M9.91211 20.6252H12.7442V19.1252H9.91211V20.6252Z" fill="#FAB908"/>
<path d="M16.3486 17.6251C17.1307 17.6251 17.7646 17.0095 17.7646 16.2501C17.7646 15.4907 17.1307 14.875 16.3486 14.875C15.5666 14.875 14.9326 15.4907 14.9326 16.2501C14.9326 17.0095 15.5666 17.6251 16.3486 17.6251Z" fill="#34A853"/>
<path d="M16.3486 12.7505C17.1307 12.7505 17.7646 12.1349 17.7646 11.3755C17.7646 10.6161 17.1307 10.0005 16.3486 10.0005C15.5666 10.0005 14.9326 10.6161 14.9326 11.3755C14.9326 12.1349 15.5666 12.7505 16.3486 12.7505Z" fill="#34A853"/>
<path d="M14.9326 16.2504H17.7647V11.3754H14.9326V16.2504Z" fill="#34A853"/>
<path d="M11.3281 8.37529C12.1102 8.37529 12.7442 7.75962 12.7442 7.00028C12.7442 6.24088 12.1102 5.62524 11.3281 5.62524C10.5461 5.62524 9.91211 6.24088 9.91211 7.00028C9.91211 7.75962 10.5461 8.37529 11.3281 8.37529Z" fill="#FAB908"/>
<path d="M11.3281 16.3753C12.1102 16.3753 12.7442 15.7597 12.7442 15.0003C12.7442 14.2409 12.1102 13.6252 11.3281 13.6252C10.5461 13.6252 9.91211 14.2409 9.91211 15.0003C9.91211 15.7597 10.5461 16.3753 11.3281 16.3753Z" fill="#FAB908"/>
<path fill-rule="evenodd" clip-rule="evenodd" d="M74.8001 14.4506H73.6211V5.54028H76.7483C77.5257 5.54028 78.1984 5.79125 78.7665 6.29315C79.3347 6.79509 79.6187 7.42767 79.6187 8.19095C79.6187 8.95423 79.3347 9.58681 78.7665 10.0888C78.1984 10.5907 77.5257 10.8417 76.7483 10.8417H74.8001V14.4506ZM74.8001 9.74655H76.7737C77.2694 9.74655 77.6668 9.58475 77.9657 9.26121C78.2646 8.93762 78.4144 8.58086 78.4144 8.19095C78.4144 7.80104 78.2646 7.44428 77.9657 7.12075C77.6668 6.79715 77.2694 6.63541 76.7737 6.63541H74.8001V9.74655ZM80.5966 9.08699C81.2031 8.46472 81.9761 8.15361 82.9162 8.15361C83.8562 8.15361 84.6292 8.46265 85.2357 9.08075C85.8423 9.69884 86.1455 10.4724 86.1455 11.4016C86.1455 12.3308 85.8423 13.1045 85.2357 13.7226C84.6292 14.3407 83.8562 14.6496 82.9162 14.6496C81.9761 14.6496 81.2031 14.3407 80.5966 13.7226C79.9901 13.1045 79.6868 12.3308 79.6868 11.4016C79.6868 10.4724 79.9901 9.7009 80.5966 9.08699ZM81.468 13.007C81.8783 13.4052 82.361 13.6044 82.9162 13.6044C83.4713 13.6044 83.9522 13.4031 84.3582 13.0007C84.7635 12.5984 84.9665 12.0654 84.9665 11.4016C84.9665 10.7379 84.7635 10.2049 84.3582 9.8025C83.9522 9.40016 83.4713 9.19896 82.9162 9.19896C82.361 9.19896 81.8801 9.40016 81.4741 9.8025C81.0688 10.2049 80.8658 10.7379 80.8658 11.4016C80.8658 12.0654 81.0663 12.6005 81.468 13.007ZM89.6992 14.6496C88.8878 14.6496 88.1872 14.3385 87.5974 13.7163C87.0082 13.0941 86.713 12.3225 86.713 11.4016C86.713 10.4807 87.0082 9.7092 87.5974 9.08699C88.1872 8.46472 88.8878 8.15361 89.6992 8.15361C90.1776 8.15361 90.6071 8.25321 90.9871 8.45229C91.3677 8.65143 91.6517 8.90028 91.8393 9.19896H91.8906L91.8393 8.35275V5.54028H93.0189V14.4506H91.8906V13.6044H91.8393C91.6517 13.903 91.3677 14.1519 90.9871 14.351C90.6071 14.5501 90.1776 14.6496 89.6992 14.6496ZM89.8916 13.6044C90.4468 13.6044 90.919 13.4052 91.3076 13.007C91.6963 12.6088 91.8906 12.0737 91.8906 11.4016C91.8906 10.7296 91.6963 10.1945 91.3076 9.79632C90.919 9.3981 90.4468 9.19896 89.8916 9.19896C89.3445 9.19896 88.8748 9.40016 88.4818 9.8025C88.0888 10.2049 87.892 10.7379 87.892 11.4016C87.892 12.0654 88.0888 12.5984 88.4818 13.0007C88.8748 13.4031 89.3445 13.6044 89.8916 13.6044ZM97.1103 14.6496C96.1709 14.6496 95.3973 14.3407 94.7907 13.7226C94.1842 13.1045 93.881 12.3308 93.881 11.4016C93.881 10.4724 94.1842 9.69884 94.7907 9.08075C95.3973 8.46265 96.1709 8.15361 97.1103 8.15361C97.8109 8.15361 98.392 8.31953 98.8531 8.65143C99.3148 8.98327 99.6521 9.40222 99.8656 9.90828L98.7894 10.3438C98.4645 9.58057 97.8796 9.19896 97.0336 9.19896C96.5125 9.19896 96.0533 9.4064 95.6559 9.82117C95.2586 10.236 95.06 10.7628 95.06 11.4016C95.06 12.0404 95.2586 12.5673 95.6559 12.9821C96.0533 13.3969 96.5125 13.6044 97.0336 13.6044C97.9136 13.6044 98.5202 13.2227 98.8531 12.4595L99.904 12.895C99.6905 13.3928 99.347 13.8097 98.8723 14.1456C98.3982 14.4817 97.8109 14.6496 97.1103 14.6496ZM102.701 14.6496C102.035 14.6496 101.478 14.463 101.029 14.0897C100.58 13.7163 100.356 13.2227 100.356 12.6088C100.356 11.945 100.621 11.4245 101.151 11.047C101.681 10.6695 102.334 10.4807 103.112 10.4807C103.804 10.4807 104.372 10.6052 104.816 10.8541V10.6799C104.816 10.2319 104.658 9.87306 104.342 9.60342C104.026 9.33378 103.637 9.19896 103.176 9.19896C102.834 9.19896 102.524 9.27776 102.246 9.43544C101.969 9.59305 101.779 9.80874 101.676 10.0825L100.6 9.63452C100.745 9.26946 101.032 8.93144 101.459 8.62033C101.886 8.30916 102.449 8.15361 103.15 8.15361C103.953 8.15361 104.62 8.38179 105.15 8.83808C105.679 9.29437 105.944 9.93732 105.944 10.767V14.4506H104.816V13.6044H104.765C104.295 14.3012 103.607 14.6496 102.701 14.6496ZM102.894 13.6044C103.381 13.6044 103.823 13.428 104.22 13.0754C104.617 12.7229 104.816 12.306 104.816 11.8248C104.483 11.5593 103.983 11.4265 103.317 11.4265C102.744 11.4265 102.313 11.5468 102.022 11.7874C101.732 12.028 101.587 12.3101 101.587 12.6336C101.587 12.9323 101.719 13.1688 101.984 13.343C102.249 13.5172 102.552 13.6044 102.894 13.6044ZM109.395 14.6496C108.695 14.6496 108.115 14.4837 107.659 14.1519C107.201 13.82 106.866 13.4052 106.652 12.9074L107.703 12.4843C108.037 13.2476 108.605 13.6292 109.408 13.6292C109.775 13.6292 110.077 13.5504 110.311 13.3928C110.546 13.2352 110.664 13.0277 110.664 12.7706C110.664 12.3723 110.377 12.1027 109.805 11.9616L108.536 11.663C108.135 11.5634 107.755 11.3747 107.396 11.0968C107.037 10.8188 106.858 10.4434 106.858 9.97054C106.858 9.43126 107.103 8.99363 107.594 8.65761C108.086 8.32165 108.669 8.15361 109.344 8.15361C109.899 8.15361 110.395 8.276 110.83 8.52073C111.266 8.76552 111.578 9.11603 111.766 9.57232L110.741 9.98297C110.51 9.44368 110.031 9.1741 109.305 9.1741C108.955 9.1741 108.66 9.2446 108.421 9.38561C108.182 9.52667 108.062 9.71751 108.062 9.95805C108.062 10.3065 108.34 10.543 108.895 10.6674L110.139 10.9536C110.728 11.0864 111.163 11.3145 111.446 11.6381C111.728 11.9616 111.868 12.3267 111.868 12.7332C111.868 13.2808 111.638 13.737 111.176 14.1021C110.715 14.4672 110.121 14.6496 109.395 14.6496ZM115.397 14.5501C114.739 14.5501 114.237 14.3801 113.891 14.0399C113.544 13.6997 113.372 13.2186 113.372 12.5963V9.3981H112.269V8.35275H113.372V6.48604H114.551V8.35275H116.088V9.3981H114.551V12.5092C114.551 13.1729 114.833 13.5047 115.397 13.5047C115.61 13.5047 115.79 13.4716 115.934 13.4052L116.345 14.3883C116.088 14.4962 115.772 14.5501 115.397 14.5501ZM119.526 14.6496C118.826 14.6496 118.247 14.4837 117.79 14.1519C117.333 13.82 116.998 13.4052 116.784 12.9074L117.835 12.4843C118.168 13.2476 118.736 13.6292 119.539 13.6292C119.907 13.6292 120.208 13.5504 120.443 13.3928C120.678 13.2352 120.795 13.0277 120.795 12.7706C120.795 12.3723 120.509 12.1027 119.937 11.9616L118.668 11.663C118.266 11.5634 117.886 11.3747 117.527 11.0968C117.168 10.8188 116.989 10.4434 116.989 9.97054C116.989 9.43126 117.235 8.99363 117.726 8.65761C118.217 8.32165 118.8 8.15361 119.476 8.15361C120.031 8.15361 120.527 8.276 120.962 8.52073C121.398 8.76552 121.71 9.11603 121.897 9.57232L120.872 9.98297C120.642 9.44368 120.163 9.1741 119.437 9.1741C119.086 9.1741 118.792 9.2446 118.553 9.38561C118.313 9.52667 118.194 9.71751 118.194 9.95805C118.194 10.3065 118.471 10.543 119.027 10.6674L120.27 10.9536C120.859 11.0864 121.295 11.3145 121.577 11.6381C121.859 11.9616 122 12.3267 122 12.7332C122 13.2808 121.769 13.737 121.308 14.1021C120.846 14.4672 120.253 14.6496 119.526 14.6496Z" fill="#14142B"/>
<path d="M28.8452 9.54191C28.8452 6.72249 31.2782 4.43774 34.1818 4.43774C35.7837 4.43774 36.9252 5.05025 37.7862 5.84747L36.7649 6.82943C36.1542 6.26553 35.3232 5.82803 34.1818 5.82803C32.0692 5.82803 30.4172 7.4808 30.4172 9.53221C30.4172 11.5836 32.0692 13.2364 34.1818 13.2364C35.5535 13.2364 36.3344 12.7017 36.835 12.2155C37.2456 11.817 37.5159 11.2434 37.616 10.4655H34.1818V9.07525H39.0177C39.0677 9.32804 39.0978 9.61969 39.0978 9.95026C39.0978 11.0003 38.8074 12.2933 37.8563 13.2072C36.9252 14.1406 35.7437 14.6364 34.1818 14.6364C31.2782 14.6364 28.8452 12.3517 28.8452 9.54191ZM42.9525 8.13223C44.8248 8.13223 46.3467 9.51275 46.3467 11.4183C46.3467 13.3142 44.8248 14.7045 42.9525 14.7045C41.0802 14.7045 39.5583 13.3142 39.5583 11.4183C39.5583 9.51275 41.0802 8.13223 42.9525 8.13223ZM42.9525 13.4017C43.9738 13.4017 44.8648 12.585 44.8648 11.4086C44.8648 10.2225 43.9738 9.41558 42.9525 9.41558C41.9212 9.41558 41.0402 10.2225 41.0402 11.4086C41.0402 12.585 41.9313 13.4017 42.9525 13.4017ZM50.3616 8.13223C52.2339 8.13223 53.7558 9.51275 53.7558 11.4183C53.7558 13.3142 52.2339 14.7045 50.3616 14.7045C48.4893 14.7045 46.9675 13.3142 46.9675 11.4183C46.9675 9.51275 48.4893 8.13223 50.3616 8.13223ZM50.3616 13.4017C51.3828 13.4017 52.2739 12.585 52.2739 11.4086C52.2739 10.2225 51.3929 9.41558 50.3616 9.41558C49.3303 9.41558 48.4493 10.2225 48.4493 11.4086C48.4493 12.585 49.3403 13.4017 50.3616 13.4017ZM59.4528 8.23917H60.8745V14.1406C60.8745 16.5712 59.4027 17.5628 57.6605 17.5628C56.0186 17.5628 55.0273 16.4934 54.6569 15.6184L55.9484 15.0933C56.1787 15.6281 56.7394 16.2601 57.6505 16.2601C58.7619 16.2601 59.4528 15.5892 59.4528 14.335V13.8586H59.4027C59.0723 14.2573 58.4315 14.6072 57.6205 14.6072C55.9284 14.6072 54.3765 13.1683 54.3765 11.3308C54.3765 9.4739 55.9284 8.035 57.6205 8.035C58.4315 8.035 59.0723 8.38496 59.4027 8.77391H59.4528V8.23917ZM57.7506 13.3142C58.7619 13.3142 59.5629 12.4878 59.5528 11.3308C59.5528 10.1739 58.7619 9.32804 57.7506 9.32804C56.7294 9.32804 55.8683 10.1739 55.8683 11.3308C55.8683 12.4781 56.7294 13.3142 57.7506 13.3142ZM61.8858 14.4808V4.82663H63.3674V14.4808H61.8858ZM67.4428 13.4017C68.2034 13.4017 68.7239 13.0419 69.1144 12.4975L70.2661 13.2461C69.8855 13.7808 68.9943 14.7045 67.4428 14.7045C65.5199 14.7045 64.0884 13.2559 64.0884 11.4183C64.0884 9.46414 65.5403 8.13223 67.2825 8.13223C69.0345 8.13223 69.8954 9.4836 70.1758 10.2225L70.3262 10.5919L65.8002 12.41C66.1511 13.0614 66.6815 13.4017 67.4428 13.4017ZM67.3326 9.39612C66.5714 9.39612 65.5199 10.0475 65.5601 11.3114L68.584 10.0961C68.4237 9.67807 67.923 9.39612 67.3326 9.39612Z" fill="#14142B"/>
</svg>
