<svg width="25" height="24" viewBox="0 0 25 24" fill="none" xmlns="http://www.w3.org/2000/svg">
<g clip-path="url(#clip0_301_5308)">
<path d="M11 7.63641V11.2733V12.7269V16.3637H14.0001V12.7269V11.2733V7.63641H11Z" fill="black"/>
<path d="M2.00002 12.6823C2.82845 12.6823 3.50003 12.0107 3.50003 11.1823C3.50003 10.3538 2.82845 9.68225 2.00002 9.68225C1.17158 9.68225 0.5 10.3538 0.5 11.1823C0.5 12.0107 1.17158 12.6823 2.00002 12.6823Z" fill="black"/>
<path d="M2.00002 14.3178C2.82845 14.3178 3.50003 13.6462 3.50003 12.8178C3.50003 11.9893 2.82845 11.3177 2.00002 11.3177C1.17158 11.3177 0.5 11.9893 0.5 12.8178C0.5 13.6462 1.17158 14.3178 2.00002 14.3178Z" fill="black"/>
<path d="M3.50003 11.1823H0.5V12.8186H3.50003V11.1823Z" fill="black"/>
<path d="M23 14.3178C23.8285 14.3178 24.5 13.6462 24.5 12.8178C24.5 11.9893 23.8285 11.3177 23 11.3177C22.1716 11.3177 21.5 11.9893 21.5 12.8178C21.5 13.6462 22.1716 14.3178 23 14.3178Z" fill="black"/>
<path d="M23 12.6823C23.8285 12.6823 24.5 12.0107 24.5 11.1823C24.5 10.3538 23.8285 9.68225 23 9.68225C22.1716 9.68225 21.5 10.3538 21.5 11.1823C21.5 12.0107 22.1716 12.6823 23 12.6823Z" fill="black"/>
<path d="M21.5 12.8186H24.5V11.1823H21.5V12.8186Z" fill="black"/>
<path d="M7.18165 17.5912C8.01006 17.5912 8.68165 16.9196 8.68165 16.0912C8.68165 15.2628 8.01006 14.5912 7.18165 14.5912C6.35321 14.5912 5.68164 15.2628 5.68164 16.0912C5.68164 16.9196 6.35321 17.5912 7.18165 17.5912Z" fill="black"/>
<path d="M7.18165 19.2276C8.01006 19.2276 8.68165 18.5561 8.68165 17.7276C8.68165 16.8992 8.01006 16.2275 7.18165 16.2275C6.35321 16.2275 5.68164 16.8992 5.68164 17.7276C5.68164 18.5561 6.35321 19.2276 7.18165 19.2276Z" fill="black"/>
<path d="M8.68165 16.0912H5.68164V17.7276H8.68165V16.0912Z" fill="black"/>
<path d="M7.18165 7.77245C8.01006 7.77245 8.68165 7.10088 8.68165 6.27247C8.68165 5.44404 8.01006 4.77246 7.18165 4.77246C6.35321 4.77246 5.68164 5.44404 5.68164 6.27247C5.68164 7.10088 6.35321 7.77245 7.18165 7.77245Z" fill="black"/>
<path d="M7.18165 13.0902C8.01006 13.0902 8.68165 12.4187 8.68165 11.5902C8.68165 10.7618 8.01006 10.0902 7.18165 10.0902C6.35321 10.0902 5.68164 10.7618 5.68164 11.5902C5.68164 12.4187 6.35321 13.0902 7.18165 13.0902Z" fill="black"/>
<path d="M8.68165 6.27246H5.68164V11.6248H8.68165V6.27246Z" fill="black"/>
<path d="M17.8184 9.40975C18.6468 9.40975 19.3184 8.73818 19.3184 7.90974C19.3184 7.08131 18.6468 6.40973 17.8184 6.40973C16.99 6.40973 16.3184 7.08131 16.3184 7.90974C16.3184 8.73818 16.99 9.40975 17.8184 9.40975Z" fill="black"/>
<path d="M17.8184 7.77245C18.6468 7.77245 19.3184 7.10088 19.3184 6.27247C19.3184 5.44404 18.6468 4.77246 17.8184 4.77246C16.99 4.77246 16.3184 5.44404 16.3184 6.27247C16.3184 7.10088 16.99 7.77245 17.8184 7.77245Z" fill="black"/>
<path d="M16.3179 7.90882H19.3179V6.27246H16.3179V7.90882Z" fill="black"/>
<path d="M12.5 4.63643C13.3285 4.63643 14.0001 3.96486 14.0001 3.13642C14.0001 2.30799 13.3285 1.63641 12.5 1.63641C11.6716 1.63641 11 2.30799 11 3.13642C11 3.96486 11.6716 4.63643 12.5 4.63643Z" fill="black"/>
<path d="M12.5 3.00001C13.3285 3.00001 14.0001 2.32844 14.0001 1.50001C14.0001 0.671577 13.3285 0 12.5 0C11.6716 0 11 0.671577 11 1.50001C11 2.32844 11.6716 3.00001 12.5 3.00001Z" fill="black"/>
<path d="M11 3.13638H14.0001V1.5H11V3.13638Z" fill="black"/>
<path d="M12.5 24C13.3285 24 14.0001 23.3284 14.0001 22.5C14.0001 21.6716 13.3285 21 12.5 21C11.6716 21 11 21.6716 11 22.5C11 23.3284 11.6716 24 12.5 24Z" fill="black"/>
<path d="M12.5 22.3639C13.3285 22.3639 14.0001 21.6923 14.0001 20.8639C14.0001 20.0355 13.3285 19.3639 12.5 19.3639C11.6716 19.3639 11 20.0355 11 20.8639C11 21.6923 11.6716 22.3639 12.5 22.3639Z" fill="black"/>
<path d="M11 22.5003H14.0001V20.8639H11V22.5003Z" fill="black"/>
<path d="M17.8184 19.2276C18.6468 19.2276 19.3184 18.5561 19.3184 17.7276C19.3184 16.8992 18.6468 16.2275 17.8184 16.2275C16.99 16.2275 16.3184 16.8992 16.3184 17.7276C16.3184 18.5561 16.99 19.2276 17.8184 19.2276Z" fill="black"/>
<path d="M17.8184 13.9098C18.6468 13.9098 19.3184 13.2382 19.3184 12.4098C19.3184 11.5814 18.6468 10.9098 17.8184 10.9098C16.99 10.9098 16.3184 11.5814 16.3184 12.4098C16.3184 13.2382 16.99 13.9098 17.8184 13.9098Z" fill="black"/>
<path d="M16.3179 17.7271H19.3179V12.4088H16.3179V17.7271Z" fill="black"/>
<path d="M12.5 9.13646C13.3285 9.13646 14.0001 8.46482 14.0001 7.63645C14.0001 6.80802 13.3285 6.13641 12.5 6.13641C11.6716 6.13641 11 6.80802 11 7.63645C11 8.46482 11.6716 9.13646 12.5 9.13646Z" fill="black"/>
<path d="M12.5 17.8639C13.3285 17.8639 14.0001 17.1923 14.0001 16.3639C14.0001 15.5355 13.3285 14.8639 12.5 14.8639C11.6716 14.8639 11 15.5355 11 16.3639C11 17.1923 11.6716 17.8639 12.5 17.8639Z" fill="black"/>
</g>
<defs>
<clipPath id="clip0_301_5308">
<rect width="24" height="24" fill="white" transform="translate(0.5)"/>
</clipPath>
</defs>
</svg>
