<svg width="64" height="62" viewBox="0 0 64 62" fill="none" xmlns="http://www.w3.org/2000/svg">
<path d="M30.271 30.1454C30.521 29.1454 30.6668 28.3329 30.9377 27.5412C33.646 19.5412 38.0002 12.4162 42.9585 5.64538C43.5418 4.85371 44.271 4.10372 45.0835 3.60372C45.521 3.33288 46.396 3.37455 46.896 3.64538C47.271 3.85372 47.5418 4.66621 47.4585 5.12455C47.3127 5.99955 47.0002 6.89538 46.5627 7.68705C43.6877 12.9162 40.7918 18.1246 37.8543 23.3121C36.7502 25.2496 35.5835 27.1662 34.4377 29.0829C34.0627 29.7287 33.646 30.3537 33.2085 30.9371C32.7293 31.6037 32.0002 31.9996 31.271 31.5621C30.7918 31.2704 30.271 31.0621 30.271 30.1454Z" fill="#CD4631"/>
<path d="M59.7711 61.167C58.7711 61.0003 57.6044 60.8753 56.4794 60.6253C52.0419 59.6253 47.6044 58.6253 43.1878 57.5837C42.2294 57.3545 41.2919 56.9587 40.4378 56.5003C39.2919 55.8962 38.8961 55.042 39.0836 54.1045C39.2711 53.167 40.0211 52.5837 41.3336 52.5628C42.2294 52.542 43.1878 52.5628 44.0419 52.7712C49.6461 54.1878 55.2503 55.6461 60.8336 57.1253C61.4586 57.292 62.1044 57.5836 62.5836 58.0003C63.7919 59.0211 63.4169 60.6253 61.8752 61.0211C61.2711 61.167 60.5836 61.1045 59.7711 61.167Z" fill="#CD4631"/>
<path d="M1.22919 5.31232C1.31252 4.33315 1.52086 3.35398 1.77086 2.39565C2.00002 1.54148 2.58336 0.937318 3.52086 0.853985C4.31252 0.791485 5.16669 1.58315 5.29169 2.62482C5.45835 4.02065 5.60419 5.43732 5.54169 6.83315C5.35419 11.0415 5.08336 15.2707 4.79169 19.479C4.68752 20.8748 4.50002 22.2707 4.27086 23.6665C4.18752 24.1457 4.02086 24.6457 3.75002 25.0207C3.02086 26.0832 1.68753 25.9998 1.16669 24.854C0.875026 24.2082 0.750026 23.4165 0.750026 22.7082C0.64586 20.3748 0.958358 8.77065 1.22919 5.31232Z" fill="#CD4631"/>
</svg>
