<svg width="145" height="172" viewBox="0 0 145 172" fill="none" xmlns="http://www.w3.org/2000/svg">
<path d="M103.802 111.592C98.9488 108.857 90.552 105.073 87.9035 101.998C86.8106 100.723 87.2455 99.7578 87.669 99.1164C88.0799 98.522 89.6005 98.1997 90.4096 98.4668C92.2455 99.0342 93.9932 99.9303 95.6454 100.901C99.3237 103.045 102.966 105.228 106.517 107.564C108.401 108.798 108.637 110.547 107.169 111.236C106.307 111.634 105.493 112.045 103.802 111.592Z" fill="#CD4631"/>
<path d="M11.912 125.847C12.4802 124.666 13.1259 124.134 14.0646 123.354C17.7115 120.355 21.4569 117.459 25.1553 114.549C25.3763 114.382 25.627 114.198 25.8824 114.09C27.0353 113.543 28.3435 112.887 29.3315 114.083C30.3133 115.302 29.5384 116.504 28.598 117.384C24.6856 121.092 20.7327 124.763 16.739 128.399C16.134 128.966 15.2489 129.358 14.4268 129.515C12.3862 129.899 11.1106 128.274 11.912 125.847Z" fill="#CD4631"/>
<path d="M70.8019 140.747C70.5188 141.803 69.4958 142.334 68.8539 142.288C67.9882 142.232 67.3216 141.903 66.3616 140.79C66.0317 140.425 65.9668 139.728 65.8641 139.172C65.1442 135.003 64.3945 130.852 63.7278 126.672C63.5506 125.643 63.4111 124.474 63.7394 123.53C64.0426 122.68 64.916 121.581 65.7021 121.464C66.4647 121.341 67.4055 121.493 68.2024 122.839C68.5009 123.321 68.7066 124.056 68.8076 124.712C69.4474 129.086 70.0873 133.459 70.6738 137.844C70.7777 138.677 70.7454 139.549 70.8019 140.747Z" fill="#CD4631"/>
<path d="M4.95374 88.4276C3.95556 87.833 3.38964 87.1278 3.41402 86.3794C3.44177 85.4307 4.20867 84.3528 4.95164 83.6461C5.5206 83.1191 6.54316 82.9653 7.38711 82.9147C11.6069 82.6614 15.8438 82.4379 20.0854 82.2911C20.7993 82.2559 21.6634 82.412 22.2407 82.7931C23.1793 83.4221 23.4052 84.3633 22.2958 85.1229C21.6753 85.5605 20.978 86.0028 20.2624 86.1381C16.1092 86.988 11.9515 87.7612 7.77653 88.5046C7.01391 88.6273 5.92215 89.0394 4.95374 88.4276Z" fill="#CD4631"/>
<path d="M95.2901 69.4532C94.8302 69.1035 94.6106 68.1388 94.7381 67.569C94.9222 66.788 95.4086 65.9118 96.048 65.4037C99.0366 62.9836 102.13 60.642 105.194 58.3175C105.642 57.9595 106.182 57.7269 106.723 57.4942C107.94 56.99 109.437 56.6614 110.015 58.0743C110.349 58.8936 110.048 60.6749 109.397 61.1298C105.411 63.987 101.234 66.617 97.0799 69.2533C96.7399 69.4893 96.0912 69.844 95.2901 69.4532Z" fill="#CD4631"/>
<path d="M21.3865 44.1908C22.5943 44.9422 23.5409 45.4474 24.4091 46.0575C26.9324 47.8156 29.4494 49.5972 31.9367 51.396C32.6296 51.9088 33.3696 52.4342 33.8713 53.0971C34.223 53.5688 34.477 54.593 34.2246 54.8777C33.7982 55.3422 33.1932 55.9098 32.2495 55.5814C31.8566 55.451 31.3464 55.2891 30.9318 55.0522C28.0123 53.3641 25.0802 51.7229 22.2094 49.9471C21.2347 49.3588 20.2508 48.6171 19.588 47.7098C19.1097 47.0532 18.8419 45.7988 19.1824 45.1855C19.4868 44.6128 20.2361 43.8825 21.3865 44.1908Z" fill="#CD4631"/>
<path d="M66.9547 45.983C66.8557 46.2584 66.7567 46.5338 66.5936 46.7669C65.8862 47.8104 65.282 49.0324 63.6935 48.481C62.0111 47.9044 62.3181 46.4769 62.6499 45.3328C63.4626 42.5813 64.4632 39.8802 65.4231 37.143C65.7875 36.1586 66.1816 35.1571 66.7213 34.27C67.2672 33.3594 67.9369 32.4569 69.2545 32.9861C70.4782 33.4901 70.6744 34.4485 70.3959 35.5817C70.0688 36.8025 67.8059 43.7451 66.9547 45.983Z" fill="#CD4631"/>
</svg>
