<svg width="81" height="22" viewBox="0 0 81 22" fill="none" xmlns="http://www.w3.org/2000/svg">
<path d="M11.2735 0C9.14271 0 7.05975 0.645131 5.28804 1.8538C3.5164 3.06253 2.13553 4.78051 1.32006 6.79046C0.504657 8.80048 0.29131 11.0122 0.707036 13.146C1.1227 15.2798 2.14876 17.2398 3.65548 18.7782C5.16219 20.3165 7.08188 21.3642 9.17173 21.7886C11.2616 22.2131 13.4278 21.9953 15.3963 21.1627C17.365 20.3301 19.0476 18.9202 20.2314 17.1113C21.4152 15.3023 22.047 13.1756 22.047 11C22.047 8.0826 20.912 5.28473 18.8916 3.22185C16.8711 1.1589 14.1309 0 11.2735 0ZM16.2174 15.8635C16.1716 15.9413 16.1111 16.0089 16.0394 16.0626C15.9677 16.1162 15.8863 16.1547 15.7999 16.176C15.7135 16.1972 15.6238 16.2007 15.5361 16.1862C15.4484 16.1718 15.3643 16.1397 15.2888 16.0918C12.761 14.5116 9.57968 14.1604 5.83088 15.0295C5.74558 15.0503 5.65714 15.0536 5.57059 15.0392C5.4841 15.0248 5.40118 14.9929 5.32684 14.9456C5.25245 14.8982 5.18801 14.8363 5.13725 14.7633C5.08648 14.6903 5.0505 14.6077 5.03126 14.5204C5.01077 14.4328 5.00751 14.3419 5.02148 14.2529C5.03552 14.164 5.06655 14.0788 5.11287 14.0021C5.15918 13.9254 5.21992 13.8589 5.29143 13.8062C5.363 13.7535 5.44404 13.7158 5.52991 13.6951C9.63126 12.7382 13.1565 13.1508 15.9939 14.9242C16.1453 15.0187 16.2539 15.1706 16.2957 15.3467C16.3377 15.5228 16.3095 15.7086 16.2174 15.8635ZM17.533 12.8699C17.4129 13.0586 17.2263 13.193 17.0119 13.2453C16.7974 13.2975 16.5716 13.2637 16.3808 13.1508C13.1116 11.2888 9.2522 10.8279 5.65031 11.8691C5.53825 11.9329 5.41358 11.9703 5.28554 11.9785C5.15743 11.9867 5.02919 11.9655 4.91017 11.9165C4.79115 11.8675 4.68442 11.792 4.59774 11.6954C4.51106 11.5988 4.44663 11.4836 4.40921 11.3583C4.37179 11.2329 4.36233 11.1007 4.38151 10.9711C4.40068 10.8415 4.448 10.7181 4.52002 10.6096C4.59203 10.5012 4.68693 10.4106 4.79767 10.3444C4.90848 10.2783 5.03233 10.2383 5.16019 10.2275C7.17063 9.63655 9.27645 9.46181 11.354 9.71363C13.4315 9.96538 15.4388 10.6385 17.2579 11.6936C17.4427 11.8162 17.5742 12.0067 17.6254 12.2256C17.6767 12.4446 17.6436 12.6752 17.533 12.8699ZM17.6448 9.75339C14.2055 7.64642 8.45334 7.45328 5.13443 8.48043C4.87903 8.55964 4.60325 8.53194 4.36784 8.40349C4.13244 8.27509 3.95663 8.05645 3.8791 7.79567C3.80157 7.53494 3.82865 7.25337 3.95444 7.01298C4.08016 6.77265 4.29433 6.59313 4.54973 6.51399C8.35876 5.3376 14.6784 5.56585 18.6766 7.98003C18.8821 8.13024 19.0247 8.35391 19.0761 8.60663C19.1275 8.85929 19.0838 9.12246 18.9537 9.34381C18.8237 9.5651 18.6168 9.72828 18.3743 9.8009C18.1317 9.87359 17.8713 9.85035 17.6448 9.73584V9.75339Z" fill="#1ED760"/>
<path d="M33.2877 9.25808C31.2238 8.74889 30.8541 8.38024 30.8541 7.66036C30.8541 6.94047 31.499 6.48396 32.4623 6.48396C33.4946 6.52347 34.4861 6.90917 35.2821 7.58135C35.2984 7.5898 35.3159 7.59419 35.3341 7.59419C35.3516 7.59419 35.3698 7.5898 35.3855 7.58135C35.4193 7.5747 35.45 7.55604 35.4714 7.52867L36.4861 6.07135C36.5061 6.04508 36.5174 6.01261 36.5174 5.97917C36.5174 5.94573 36.5061 5.91326 36.4861 5.88699C35.3673 4.95202 33.959 4.45407 32.5137 4.48234C30.2868 4.48234 28.7306 5.85187 28.7306 7.80082C28.7306 9.89895 30.0719 10.6452 32.3934 11.2158C34.3708 11.6811 34.7061 12.0937 34.7061 12.7697C34.7061 13.4456 34.0267 14.0163 32.9863 14.0163C31.7566 14.0076 30.5783 13.51 29.7021 12.6292C29.6689 12.6178 29.6325 12.6178 29.5987 12.6292C29.5636 12.6379 29.531 12.6561 29.504 12.6819L28.3521 14.0426C28.3282 14.0687 28.3145 14.1033 28.3145 14.1392C28.3145 14.1751 28.3282 14.2097 28.3521 14.2357C29.6037 15.3805 31.2289 16.0066 32.9092 15.9915C35.3078 15.9915 36.8646 14.6483 36.8646 12.5766C36.8302 10.8471 35.7979 9.88139 33.2877 9.25808Z" fill="black"/>
<path d="M42.2642 7.17646C41.7672 7.17329 41.2764 7.28645 40.8295 7.50709C40.382 7.72773 39.9903 8.0501 39.6844 8.44942V7.48372C39.6826 7.44803 39.6669 7.41452 39.6412 7.39006C39.6155 7.36559 39.5817 7.35197 39.5472 7.35204H37.6813C37.6462 7.35197 37.6124 7.36559 37.5867 7.39006C37.561 7.41452 37.546 7.44803 37.5435 7.48372V18.194C37.5435 18.2313 37.5579 18.267 37.5836 18.2934C37.6099 18.3197 37.6444 18.3345 37.6813 18.3345H39.5296C39.566 18.3345 39.6011 18.3197 39.6268 18.2934C39.6525 18.267 39.6675 18.2313 39.6675 18.194V14.8317C39.9834 15.2143 40.3789 15.5206 40.8251 15.7285C41.2708 15.9365 41.7565 16.0409 42.2466 16.0344C44.1814 16.0344 46.1419 14.5157 46.1419 11.601C46.1419 8.68645 44.1983 7.17646 42.2642 7.17646ZM43.9834 11.5659C44.0159 11.8799 43.984 12.1972 43.89 12.4979C43.796 12.7986 43.6418 13.0761 43.4375 13.3129C43.2325 13.5497 42.9824 13.7405 42.7023 13.8736C42.4215 14.0066 42.1175 14.0787 41.8085 14.0855C41.4983 14.0757 41.1937 14.0019 40.9123 13.8686C40.6308 13.7352 40.3789 13.5451 40.1721 13.3097C39.9646 13.0742 39.806 12.7983 39.7058 12.4986C39.6061 12.1989 39.5666 11.8816 39.5898 11.5659C39.5679 11.2509 39.608 10.9346 39.7089 10.6359C39.8092 10.3373 39.9677 10.0624 40.1752 9.82792C40.382 9.59347 40.634 9.40414 40.9141 9.27129C41.1949 9.13851 41.4989 9.06498 41.8085 9.05517C42.1213 9.06066 42.4296 9.13263 42.7136 9.26651C42.9975 9.40039 43.2513 9.59321 43.4581 9.8327C43.6656 10.0723 43.8217 10.3532 43.9163 10.6577C44.0109 10.9621 44.0429 11.2834 44.0091 11.601L43.9834 11.5659Z" fill="black"/>
<path d="M51.1804 7.17695C50.3212 7.19264 49.4857 7.46776 48.7793 7.96758C48.073 8.46747 47.5277 9.16967 47.2118 9.98567C46.8959 10.8016 46.8239 11.6949 47.0044 12.5526C47.1855 13.4104 47.6111 14.1943 48.2272 14.8056C48.8439 15.4167 49.6242 15.8278 50.4691 15.9869C51.3139 16.146 52.1864 16.046 52.9761 15.6995C53.7652 15.3531 54.4371 14.7756 54.9052 14.04C55.3741 13.3045 55.6185 12.4438 55.6085 11.5664C55.6003 10.9812 55.48 10.4032 55.2531 9.86566C55.0256 9.32814 54.6972 8.84162 54.286 8.43391C53.8749 8.02613 53.3885 7.70524 52.8558 7.48958C52.323 7.27391 51.7533 7.16766 51.1804 7.17695ZM51.1804 14.1387C50.8627 14.1344 50.5493 14.0646 50.2585 13.9335C49.9683 13.8024 49.7063 13.6126 49.4895 13.3755C49.2726 13.1386 49.1053 12.8593 48.9968 12.5544C48.8884 12.2495 48.8414 11.9254 48.8589 11.6015C48.8389 11.2821 48.8834 10.9619 48.9887 10.6607C49.0946 10.3595 49.2601 10.0835 49.4744 9.84998C49.6888 9.61637 49.9476 9.43007 50.2347 9.30252C50.5224 9.17496 50.8326 9.10886 51.146 9.10834C51.4644 9.11035 51.7796 9.17806 52.0717 9.30755C52.3644 9.43698 52.6282 9.62547 52.8476 9.8616C53.0663 10.0978 53.2368 10.3768 53.3478 10.6818C53.4587 10.9868 53.5082 11.3116 53.4932 11.6366C53.5132 11.9587 53.4681 12.2815 53.3609 12.585C53.2537 12.8885 53.0864 13.1662 52.8695 13.4008C52.6521 13.6356 52.3907 13.8221 52.0999 13.949C51.8091 14.076 51.4963 14.1405 51.1804 14.1387Z" fill="black"/>
<path d="M60.9306 7.35258H58.893V5.22811C58.893 5.19235 58.8798 5.15788 58.8554 5.13174C58.8316 5.10566 58.799 5.08991 58.7639 5.08765H56.915C56.8786 5.08765 56.8435 5.10243 56.8178 5.12877C56.7921 5.1551 56.7777 5.19086 56.7777 5.22811V7.35258H55.8664C55.8495 7.35258 55.8326 7.356 55.8169 7.36265C55.8012 7.36923 55.7868 7.37898 55.7749 7.39118C55.763 7.40338 55.7536 7.4179 55.7473 7.43391C55.7404 7.44986 55.7373 7.46703 55.7373 7.48426V9.10839C55.7373 9.14415 55.7505 9.17862 55.7743 9.20476C55.7987 9.23084 55.8313 9.24659 55.8664 9.24885H56.7263V13.4452C56.7263 15.1395 57.5856 15.9999 59.1851 15.9999C59.7868 16.0172 60.3815 15.8653 60.9049 15.5609C60.9256 15.5507 60.9437 15.5345 60.9556 15.5143C60.9682 15.494 60.9738 15.4705 60.9738 15.4468V13.9017C60.9738 13.8778 60.9688 13.8541 60.9582 13.8327C60.9475 13.8114 60.9325 13.7928 60.9137 13.7788C60.893 13.7655 60.8692 13.7585 60.8447 13.7585C60.8203 13.7585 60.7965 13.7655 60.7758 13.7788C60.4398 13.9524 60.0688 14.0427 59.6921 14.0421C59.0992 14.0421 58.8328 13.77 58.8328 13.1642V9.24885H60.8704C60.9068 9.24885 60.9419 9.23407 60.9676 9.20773C60.9933 9.18139 61.0077 9.14563 61.0077 9.10839V7.48426C61.0089 7.45702 61.002 7.4301 60.9882 7.40667C60.9745 7.3833 60.9544 7.36452 60.9306 7.35258Z" fill="black"/>
<path d="M68.0235 7.36149V7.09811C68.0235 6.32562 68.3074 5.98324 68.9523 5.98324C69.3108 5.98744 69.6662 6.0558 70.0015 6.18516C70.0203 6.19387 70.041 6.19839 70.0617 6.19839C70.0824 6.19839 70.1031 6.19387 70.1219 6.18516C70.1382 6.17154 70.1519 6.15411 70.1607 6.13429C70.1695 6.11447 70.1739 6.09285 70.1733 6.07103V4.46447C70.1745 4.43367 70.1664 4.40327 70.1494 4.3779C70.1319 4.35253 70.1074 4.33362 70.0786 4.324C69.5766 4.18915 69.0583 4.13002 68.5399 4.14842C66.8201 4.14842 65.9602 5.13167 65.9602 6.98405V7.38782H65.1003C65.0665 7.38782 65.0332 7.4017 65.0094 7.42642C64.985 7.45115 64.9712 7.48459 64.9712 7.51951V9.15241C64.9712 9.18817 64.9844 9.22264 65.0088 9.24879C65.0326 9.27487 65.0652 9.29062 65.1003 9.29288H65.9602V15.7717C65.9602 15.8067 65.974 15.8402 65.9978 15.8648C66.0223 15.8896 66.0549 15.9034 66.0893 15.9034H67.9032C67.9383 15.9035 67.9721 15.8899 67.9978 15.8654C68.0235 15.841 68.0385 15.8074 68.041 15.7717V9.24898H69.7609L72.4089 15.7191C72.108 16.4038 71.8072 16.5355 71.4029 16.5355C71.0463 16.5256 70.6978 16.4261 70.3882 16.2458C70.3707 16.2372 70.3519 16.2328 70.3324 16.2328C70.313 16.2328 70.2942 16.2372 70.2767 16.2458C70.2591 16.2509 70.2434 16.2598 70.2303 16.272C70.2165 16.2842 70.2058 16.2992 70.1989 16.316L69.623 17.7119C69.6104 17.7436 69.6098 17.779 69.6205 17.8113C69.6317 17.8436 69.6537 17.8707 69.6831 17.8874C70.2842 18.2394 70.968 18.4184 71.6605 18.4054C73.0193 18.4054 73.7758 17.7557 74.4465 16.0088L77.6536 7.54585C77.6642 7.52558 77.6699 7.50298 77.6699 7.48C77.6699 7.45709 77.6642 7.43449 77.6536 7.41416C77.6404 7.39712 77.6235 7.3835 77.604 7.3744C77.5846 7.36523 77.5633 7.36084 77.542 7.36149H75.5646C75.537 7.36329 75.5107 7.37233 75.4881 7.38776C75.4656 7.40312 75.4474 7.42436 75.4355 7.44928L73.4662 13.1995L71.3428 7.44928C71.3321 7.42313 71.3146 7.40073 71.2914 7.38511C71.2682 7.36943 71.2412 7.36123 71.2137 7.36149H68.0235Z" fill="black"/>
<path d="M63.9139 7.35352H62.0656C61.9898 7.35352 61.9277 7.41639 61.9277 7.49398V15.7286C61.9277 15.8062 61.9898 15.8691 62.0656 15.8691H63.9139C63.9904 15.8691 64.0518 15.8062 64.0518 15.7286V7.49398C64.0518 7.41639 63.9904 7.35352 63.9139 7.35352Z" fill="black"/>
<path d="M62.994 3.59573C62.7301 3.59399 62.4713 3.67235 62.2513 3.82076C62.0307 3.96923 61.859 4.18115 61.7568 4.42961C61.6546 4.67814 61.6271 4.95197 61.6772 5.2165C61.728 5.48103 61.854 5.72433 62.0401 5.91553C62.2262 6.10667 62.4638 6.23713 62.722 6.29038C62.9809 6.34357 63.2491 6.31717 63.4935 6.21447C63.7374 6.1117 63.9461 5.93729 64.0927 5.71335C64.24 5.48942 64.3184 5.22599 64.3184 4.95648C64.319 4.77819 64.2858 4.60145 64.22 4.43639C64.1535 4.27133 64.0564 4.12131 63.9335 3.99479C63.8101 3.86833 63.664 3.76796 63.5029 3.69947C63.3412 3.63098 63.1689 3.59573 62.994 3.59573Z" fill="black"/>
<path d="M79.1931 9.99534C79.022 9.99651 78.8527 9.963 78.6948 9.89683C78.5369 9.8306 78.3933 9.733 78.2724 9.60971C78.1514 9.48635 78.0561 9.33975 77.9909 9.17844C77.9264 9.01706 77.8938 8.84413 77.8951 8.66977C77.8951 8.31583 78.0323 7.97642 78.2774 7.72615C78.5224 7.47595 78.8552 7.33536 79.2018 7.33536C79.3723 7.33419 79.5415 7.3677 79.7001 7.43386C79.858 7.50009 80.0016 7.59769 80.1225 7.72099C80.2429 7.84435 80.3388 7.99094 80.4033 8.15232C80.4685 8.31364 80.5011 8.48657 80.4998 8.66099C80.4998 9.01487 80.3626 9.35428 80.1175 9.60455C79.8718 9.85475 79.5397 9.99534 79.1931 9.99534ZM79.1931 7.46704C78.9593 7.4653 78.7305 7.53456 78.5356 7.66605C78.3407 7.79755 78.1884 7.98526 78.0981 8.20538C78.0079 8.42551 77.9834 8.66809 78.0286 8.90222C78.0737 9.13629 78.1865 9.35144 78.3513 9.52018C78.5168 9.68891 78.7274 9.80362 78.9568 9.84971C79.1862 9.89587 79.4237 9.87127 79.6393 9.77916C79.8549 9.68704 80.0385 9.53154 80.1677 9.33246C80.2961 9.13332 80.3638 8.89958 80.3626 8.66099C80.3638 8.50458 80.3344 8.34953 80.2767 8.20474C80.2184 8.05995 80.1332 7.92826 80.0254 7.81723C79.9176 7.70627 79.7891 7.61816 79.6481 7.55806C79.5064 7.49796 79.3548 7.46704 79.2018 7.46704H79.1931ZM79.4851 8.80139L79.8468 9.32814H79.5371L79.21 8.84535H78.9267V9.32814H78.6597V7.93233H79.2708C79.5885 7.93233 79.8035 8.09913 79.8035 8.37128C79.8054 8.46772 79.7759 8.56216 79.7202 8.63988C79.6644 8.71767 79.5848 8.77441 79.4939 8.80139H79.4851ZM79.262 8.16937H78.9267V8.60832H79.262C79.4337 8.60832 79.5371 8.52931 79.5371 8.38884C79.5371 8.24838 79.4425 8.16937 79.2708 8.16937H79.262Z" fill="black"/>
</svg>
